<?xml version="1.0" encoding="UTF-8"?>
<svg id="Capa_1" data-name="Capa 1" xmlns="http://www.w3.org/2000/svg" xmlns:xlink="http://www.w3.org/1999/xlink" viewBox="0 0 594.16 552.75">
  <defs>
    <style>
      .cls-1 {
        fill: #1a1a1a;
      }

      .cls-1, .cls-2, .cls-3 {
        fill-rule: evenodd;
      }

      .cls-4, .cls-2 {
        fill: #fff;
      }

      .cls-5 {
        clip-path: url(#clippath);
      }

      .cls-6 {
        fill: none;
      }
    </style>
    <clipPath id="clippath">
      <rect class="cls-6" x="254.41" y="111.81" width="219.54" height="88.37"/>
    </clipPath>
  </defs>
  <g>
    <g>
      <path class="cls-2" d="m83.73,550.75v-1.18c.05-9.19,13.34-16.11,21.94-16.11h.55s0-104.56,0-104.56h13.52v104.71h1.04c9.71,0,19.11,7.06,20.95,15.73l.3,1.42h-58.3Z"/>
      <path d="m118.56,430.06v104.7l2.2.02c8.88,0,18.02,6.33,19.81,14.78h-55.66c.04-8.26,12.49-14.94,20.75-14.94l1.73.02v-104.58h11.16Zm2.36-2.36h-15.88v104.58c-9.28.33-22.43,7.48-22.48,17.27v2.37s2.36,0,2.36,0h58.57l-.6-2.85c-1.94-9.14-11.77-16.58-21.96-16.65v-104.72h0Z"/>
    </g>
    <g>
      <path d="m99.06,439.42c-8.71,0-15.8-7.09-15.8-15.8s7.09-15.8,15.8-15.8h26.73c8.71,0,15.8,7.09,15.8,15.8s-7.09,15.8-15.8,15.8h-26.73Z"/>
      <path d="m125.79,408.99c8.08,0,14.62,6.55,14.62,14.62s-6.55,14.62-14.62,14.62h-26.73c-8.08,0-14.62-6.55-14.62-14.62s6.55-14.62,14.62-14.62h26.73Zm0-2.36h-26.73c-9.36,0-16.98,7.62-16.98,16.98s7.62,16.98,16.98,16.98h26.73c9.36,0,16.98-7.62,16.98-16.98s-7.62-16.98-16.98-16.98h0Z"/>
    </g>
    <g>
      <path class="cls-4" d="m56.92,423.7c-9.18,0-16.66-7.43-16.75-16.59L1.22,262.12c-.03-.1-.04-.2-.04-.31,0-9.23,7.51-16.75,16.74-16.75h83.02c9.18,0,16.66,7.43,16.75,16.59l34.32,127.76h17.96c9.23,0,16.75,7.51,16.75,16.75v.63c0,9.23-7.51,16.75-16.75,16.75h-27.82c-.61.1-1.41.16-2.21.16H56.92Z"/>
      <path d="m100.95,246.25c8.6,0,15.57,6.97,15.57,15.57l34.6,128.78h18.86c8.6,0,15.57,6.97,15.57,15.57v.63c0,8.6-6.97,15.57-15.57,15.57h-27.82c-.72.1-1.46.16-2.21.16H56.92c-8.6,0-15.57-6.97-15.57-15.57L2.36,261.81c0-8.6,6.97-15.57,15.57-15.57h83.02Zm0-2.36H17.92c-9.88,0-17.92,8.04-17.92,17.93,0,.21.03.41.08.61l38.92,144.85c.17,9.74,8.15,17.6,17.92,17.6h83.02c.79,0,1.58-.05,2.37-.16h27.66c9.89,0,17.93-8.04,17.93-17.93v-.63c0-9.89-8.04-17.93-17.93-17.93h-17.05l-34.05-126.74c-.17-9.74-8.15-17.6-17.92-17.6h0Z"/>
    </g>
  </g>
  <path d="m356.7,26.55v283.54h-172.22V26.55h172.22Zm1.89-1.89h-176v287.32h176V24.67h0Z"/>
  <path d="m473.95,26.62v283.6h-124.43V26.62h124.43Zm1.89-1.89h-128.21v287.37h128.21V24.73h0Z"/>
  <path d="m483.25,2.36v324.51H176.28V2.36h306.97Zm2.36-2.36H173.92v329.22h311.69V0h0Z"/>
  <g>
    <path class="cls-4" d="m115.82,74.12c-6.84,0-12.41-5.57-12.41-12.41,0-.25,0-.49.02-.74h-32.89c-6.85,0-12.42-5.57-12.42-12.42v-1.32c0-6.85,5.57-12.42,12.42-12.42h152.52c6.85,0,12.42,5.57,12.42,12.42v1.32c0,.25,0,.5-.02.75h32.9c6.84,0,12.41,5.57,12.41,12.41s-5.57,12.41-12.41,12.41H115.82Z"/>
    <path d="m223.07,35.99c6.21,0,11.24,5.03,11.24,11.24v1.32c0,.66-.06,1.3-.17,1.93h34.22c6.2,0,11.23,5.03,11.23,11.23s-5.03,11.23-11.23,11.23H115.82c-6.2,0-11.23-5.03-11.23-11.23,0-.66.06-1.29.17-1.92h-34.21c-6.21,0-11.24-5.03-11.24-11.24v-1.32c0-6.21,5.03-11.24,11.24-11.24h152.52Zm0-2.36H70.55c-7.5,0-13.6,6.1-13.6,13.6v1.32c0,7.5,6.1,13.6,13.6,13.6h31.69c.23,7.29,6.24,13.15,13.58,13.15h152.55c7.49,0,13.59-6.1,13.59-13.59s-6.1-13.59-13.59-13.59h-31.7v-.89c0-7.5-6.1-13.6-13.6-13.6h0Z"/>
  </g>
  <g>
    <path class="cls-2" d="m174.09,102.27c-3.77,0-6.84-3.07-6.84-6.84s3.07-6.84,6.84-6.84h29.88c3.77,0,6.84,3.07,6.84,6.84s-3.07,6.84-6.84,6.84h-29.88Z"/>
    <path d="m203.97,89.76c3.13,0,5.66,2.53,5.66,5.66s-2.54,5.66-5.66,5.66h-29.88c-3.13,0-5.66-2.54-5.66-5.66s2.53-5.66,5.66-5.66h29.88Zm0-2.36h-29.88c-4.42,0-8.02,3.6-8.02,8.02s3.6,8.02,8.02,8.02h29.88c4.42,0,8.02-3.6,8.02-8.02s-3.6-8.02-8.02-8.02h0Z"/>
  </g>
  <g class="cls-5">
    <g>
      <path class="cls-4" d="m482.99,140.4h-176.42c-7.08,0-13.09,4.61-15.17,11h-16.59c-5.78,0-10.46,4.68-10.46,10.46s4.68,10.46,10.46,10.46h109.28c.11,0,98.9,0,98.9,0,8.82,0,15.97-7.15,15.97-15.96s-7.15-15.96-15.97-15.96Z"/>
      <path d="m482.99,173.5h-98.79s-109.39,0-109.39,0c-6.42,0-11.64-5.22-11.64-11.64s5.22-11.64,11.64-11.64h15.75c2.53-6.61,8.85-11,16-11h176.42c9.45,0,17.14,7.69,17.14,17.14s-7.69,17.14-17.14,17.14Zm-208.18-20.92c-5.12,0-9.28,4.16-9.28,9.28s4.16,9.28,9.28,9.28h208.18c8.15,0,14.79-6.63,14.79-14.78s-6.63-14.78-14.79-14.78h-176.42c-6.42,0-12.06,4.09-14.05,10.19l-.27.81h-17.44Z"/>
    </g>
  </g>
  <g>
    <g>
      <path class="cls-2" d="m532.45,444.57l2.7-143.13c-.26-1.46-6.74-41.1-.88-58.07,11.93-34.51,31.67-66.89,31.87-67.22l3.06-5-.89,5.79c-.09.57-8.79,56.77-16.55,80.54-7.7,23.57-10.93,44.26-10.96,44.47l-3.16,142.89-5.18-.29Z"/>
      <path d="m567.14,176.78s-8.68,56.4-16.51,80.35c-7.83,23.95-11.01,44.66-11.01,44.66l-3.14,141.83-2.83-.16,2.67-141.99s-6.78-40.82-.94-57.71c12.03-34.79,31.76-66.99,31.76-66.99h0Zm4.12-11.23l-6.13,9.99c-.2.32-20.01,32.82-31.98,67.45-5.8,16.79.23,55.06.81,58.65l-2.67,141.78-.04,2.27,2.27.13,2.83.16,2.43.14.05-2.44,3.14-141.67c.3-1.9,3.56-21.71,10.89-44.14,7.8-23.86,16.24-78.41,16.6-80.72l1.78-11.59h0Z"/>
    </g>
    <g>
      <path class="cls-2" d="m531.15,449.16l4.17-55.44c.07-1.01,1.76-25.16,10.64-36.04,10.46-12.81,40.93-34.22,42.22-35.13l3.33-2.33-1.56,3.75c-.66,1.58-16.27,38.83-28.33,53.14-10.5,12.44-17.56,17.88-19.43,19.23l-4.15,54.24-6.89-1.42Z"/>
      <path d="m588.85,323.52s-16.06,38.5-28.14,52.83c-12.09,14.33-19.66,19.34-19.66,19.34l-4.09,53.46-4.56-.94,4.09-54.41s1.63-24.67,10.38-35.38c10.48-12.83,41.98-34.91,41.98-34.91h0Zm5.31-6.6l-6.66,4.67c-1.3.91-31.89,22.41-42.46,35.35-9.12,11.16-10.84,35.68-10.9,36.72l-4.09,54.38-.16,2.07,2.03.42,4.56.94,2.62.54.2-2.67,4-52.36c2.45-1.82,9.34-7.42,19.19-19.09,12.18-14.45,27.86-51.86,28.52-53.45l3.13-7.51h0Z"/>
    </g>
    <g>
      <path class="cls-2" d="m525.4,439.83v-94.22c-1.36-3.22-15.65-38.59-13.99-97.45,1.72-61.3,7.04-94.18,7.09-94.5l.87-5.26,1.43,5.14c.16.57,15.88,57.47,17.65,110.5,1.49,44.48-5.92,79.35-6.45,81.78l.16,94.74-6.76-.72Z"/>
      <path d="m519.67,153.86s15.82,56.72,17.61,110.22c1.55,46.27-6.45,81.61-6.45,81.61l.16,93.56-4.4-.47v-93.4s-15.73-35.25-13.99-97.17c1.74-61.93,7.08-94.34,7.08-94.34h0Zm-.59-10.91l-1.73,10.53c-.05.33-5.38,33.28-7.11,94.66-1.64,58.65,12.05,93.16,13.99,97.73v95.03l2.11.23,4.4.47,2.61.28v-2.63s-.16-93.3-.16-93.3c.73-3.37,7.92-38,6.45-81.94-1.78-53.17-17.54-110.21-17.7-110.78l-2.87-10.28h0Z"/>
    </g>
    <g>
      <path class="cls-2" d="m518.19,373.96c-1.03-2.59-14.61-36.49-24.92-59.72-11.41-25.67-30.99-89.9-31.18-90.55l-1.76-5.79,3.81,4.71c1.75,2.17,43.05,53.42,52.26,82.94,9.2,29.49,8.09,67,8.07,67.37l6.84,74.07-5.75,1.83-7.36-74.87Z"/>
      <path d="m463.22,223.36s42.8,52.91,52.05,82.55c9.24,29.64,8.02,66.99,8.02,66.99l6.76,73.27-3.46,1.1-7.23-73.59s-14.19-35.57-25-59.91c-11.51-25.9-31.13-90.41-31.13-90.41h0Zm-5.78-10.9l3.52,11.58c.2.65,19.8,64.94,31.23,90.68,10.13,22.82,23.42,55.96,24.84,59.52l7.2,73.26.29,2.9,2.78-.88,3.46-1.1,1.81-.58-.18-1.89-6.75-73.13c.09-2.98.92-38.58-8.13-67.62-9.27-29.73-50.71-81.16-52.46-83.33l-7.61-9.41h0Z"/>
    </g>
    <g>
      <path class="cls-2" d="m524.7,550.02c-13.66,0-24.76-11.11-24.76-24.76v-99.53c0-2.39,1.94-4.33,4.32-4.33h47.64c2.38,0,4.32,1.94,4.32,4.33v99.53c0,13.66-11.11,24.76-24.76,24.76h-6.76Z"/>
      <path d="m551.9,422.58c1.73,0,3.14,1.41,3.14,3.15v99.53c0,13.02-10.56,23.58-23.59,23.58h-6.76c-13.03,0-23.59-10.56-23.59-23.58v-99.53c0-1.74,1.41-3.15,3.14-3.15h47.64Zm0-2.36h-47.64c-3.03,0-5.5,2.47-5.5,5.5v99.53c0,14.3,11.64,25.94,25.94,25.94h6.76c14.31,0,25.94-11.64,25.94-25.94v-99.53c0-3.04-2.47-5.5-5.5-5.5h0Z"/>
    </g>
  </g>
  <g>
    <path class="cls-2" d="m258.08,226.33l-11.95-.47-21.07-6.76s-3.55-3.65.79-3.62c4.34.03,14.15,4.25,14.15,4.25l-9.43-11.79s-1.26-4.57.79-4.4c2.05.17,3.93,1.57,3.93,1.57,0,0,.35-3.37,2.67-2.67,2.32.69,5.66,3.77,5.66,3.77,0,0,.62-2.79,3.46-1.1,2.84,1.69,6.6,5.19,6.6,5.19,0,0,4.95-.55,8.96.79,4.02,1.34,5.66,3.15,5.66,3.15,0,0,3.67-1.45,6.92,2.04,3.25,3.49,16.04,15.88,16.04,15.88l7.7-35.54s1.78-9.39,5.66-12.42c3.88-3.03,8.02-5.5,8.02-5.5,0,0-.29-4.61-.31-5.66-.02-1.05-.09-6.18-1.26-7.86-1.17-1.68-6.3-14.91.63-21.7,11.49-11.26,20.13-9.28,20.13-9.28,0,0,1.28-6.26,7.07-7.07,5.79-.82,11.85,2.81,14.15,8.18,4.06,9.45-2.52,12.73-2.52,12.73,0,0-.08.45-1.1,4.25-1.02,3.8-4.4,9.75-4.4,9.75l2.05,4.4s1.25-1.53,3.3.94c2.05,2.47,7.23,9.59,7.23,9.59l14.31.47s11.24-.82,27.2,16.2c15.96,17.02,50.32,51.1,50.32,51.1,0,0,10.92,9.34,11.01,30.03.09,20.69-9.75,275.64-9.75,275.64l-57.71.63s-3.63-2.54,1.26-7.08c5.75-5.33,18.08-9.59,18.08-9.59l2.04-2.2v-6.92l-5.66-184.13-1.89.47-76.73,203.78s-1.04,4.98-3.77,5.66c-2.74.68-61.95-.32-61.95-.32,0,0-.96-7.41,6.92-10.06,7.88-2.65,23.75-8.65,23.75-8.65l4.09-4.4,77.36-243.09-1.73-19.18-51.89-52.05-10.69,40.09s-1.63,8.46-11.64,8.18c-10.01-.29-20.28-11.48-20.28-11.48l-22.17-23.74Z"/>
    <path class="cls-1" d="m299.12,528.55l36.59,1.93-6.18,16.76s-1.16,2.92-3.52,3.48c-2.36.56-61.64.32-61.64.32,0,0,.49-7.67,8.65-10.22,8.16-2.55,19.25-5.91,21.54-7.7,2.29-1.8,4.56-4.56,4.56-4.56Z"/>
    <path class="cls-1" d="m393.3,550.72s-4.73-1.63-.31-6.29c4.94-5.2,11.87-6.85,13.52-7.39,1.65-.54,6.99-2.78,7.55-3.93.55-1.15.31-2.2.31-2.2h37.42l-.94,20.13-1.42.63-56.14-.94Z"/>
    <path class="cls-1" d="m308.24,156.2l2.67-5.19s3.54,3.08,7.39,1.89c3.85-1.19,11.16-4.72,11.16-4.72,0,0,3.44,3.98,4.72,5.82,1.28,1.83,2.2,6.13,2.2,6.13l1.1,5.82s-.17,4.91-2.36,6.45c-2.19,1.54-5.58,1.8-9.28.47-3.7-1.32-4.21-1.62-5.82-.94-1.61.68-3.46,1.57-3.46,1.57l-3.46-1.1s-1.62,7.51,2.05,10.85c3.66,3.34,11.6,5.1,18.08,2.36,6.48-2.75,10.42-5.65,10.85-11.32.43-5.67-1.57-11.79-1.57-11.79l-3.3-4.72s.6-6.03,3.62-6.45,3.47.51,3.78,2.04c.31,1.53,0,4.56,0,4.56,0,0,3.23-5.05,3.3-7.23.07-2.18-.47-3.14-.47-3.14,0,0,8.74-3.23,3.77-13.05-4.96-9.82-15.53-8.35-17.77-6.92s-3.46,6.13-3.46,6.13c0,0-13.36,2-18.55,7.86-5.19,5.87-5.19,14.62-5.19,14.62Z"/>
    <path class="cls-1" d="m376.64,272.56l6.13.47,14.78,53.3,2.36,1.73,44.34-.47s1.11-8.02-5.5-9.43c-6.62-1.42-14.31.79-14.31.79l-5.82-4.09-9.28-42.46,28.46-.47s10.01-.68,13.05-7.39c3.04-6.71,3.77-13.68,3.77-13.68,0,0,6.37,10.58,5.82,27.05-.56,16.47-8.65,247.97-8.65,247.97l-37.74-1.26-5.82-183.19h-2.67l-67.93,182.72-36.95-.63,76.1-240.11-.16-10.85Z"/>
    <g>
      <path class="cls-4" d="m319.76,178.7c-.43,0-.85-.04-1.21-.11-1.63-.31-2.64-1.55-2.75-1.69-.26-.33-.32-.77-.17-1.15.15-.39.5-.67.91-.74.03,0,2.94-.49,4.52-1.05.47-.17.83-.24,1.15-.24.7,0,1.07.37,1.23.59.48.64.25,1.39.08,1.93-.05.15-.1.32-.13.47-.24,1.24-1.6,1.98-3.63,1.98h0Z"/>
      <path d="m322.2,174.9c.67,0,.18.83.03,1.59-.14.72-1.35,1.03-2.47,1.03-.35,0-.69-.03-.99-.09-1.24-.24-2.04-1.26-2.04-1.26,0,0,3.02-.5,4.72-1.1.34-.12.59-.18.76-.18h0Zm0-2.36c-.46,0-.95.1-1.54.31-1.23.43-3.53.87-4.32,1-.82.14-1.51.7-1.81,1.47-.3.78-.17,1.65.34,2.31.23.29,1.45,1.73,3.46,2.12.44.08.93.13,1.43.13,2.6,0,4.44-1.13,4.79-2.94.02-.11.07-.23.1-.35.2-.65.57-1.86-.26-2.98-.5-.68-1.3-1.06-2.18-1.06h0Z"/>
    </g>
  </g>
  <g>
    <path class="cls-3" d="m339.09,126.28h3.46c4.98,1.09,8.07,2.94,10.38,6.6,2.05,3.26,3.57,8.7,1.1,13.21-.6,1.1-1.38,2.02-2.83,2.67-.52.23-.68.23-.79.47-.11.25.28,2.31.16,3.46-.3,2.8-1.82,5.99-3.14,8.17-.57.93-1.44,1.75-1.41,2.36,0,.13,1.63,2.51,1.73,2.52.32.03.54-.45,1.26-.32.91.17,2.05,1.69,2.83,2.83.7,1.02,1.26,2.12,1.88,2.99.88,1.23,1.99,2.8,3.14,4.09.42.47.87.98,1.26,1.1.8.24,2.37,0,3.61,0,2.38,0,4.59.04,7.07,0,1.17-.02,2.38-.23,3.3-.16,1.22.1,2.72.68,4.09,1.1,3.76,1.15,7.4,2.77,10.38,4.72,4.24,2.78,7.64,6.07,10.85,9.28,7.14,7.13,13.64,13.59,20.13,20.12,9.97,10.04,19.91,20.07,30.18,30.34.85.85,1.72,1.62,2.52,2.52.79.88,1.44,1.84,2.2,2.83,1.5,1.97,3.22,3.84,4.24,5.82,1.92,3.7,3.03,8.76,3.77,13.83.79,5.37.89,11.07,1.1,16.35v4.25c-2.03,43.89-2.92,88.06-5.03,132.38-.53,11.06-.59,22.13-1.1,33.33-.5,10.88-.77,21.9-1.26,33.02-.82,18.61-1.42,38.43-2.2,58.02-.05,1.2-.09,2.66-.16,4.09-.05.89.06,2.4-.32,2.99-.06.1-.23.09-.32.16-.15.12-.01.17,0,.16-1.08,1.17-4.37.79-6.76.79h-45.28c-2.27,0-6.01.3-7.07-.32.05.03-.35-.22-.32-.16-.13-.25-.02-.76-.16-.95-.09-.12-.44-.07-.63-.32-.41-.54-.7-.83-.79-1.26-.11-.58.08-1.7.16-2.04.49-2.07,2.48-3.62,4.4-5.19,1.93-1.58,3.89-2.68,5.98-3.62,1.92-.86,4.63-2.18,6.6-2.99,1.56-.64,3.55-1.13,4.87-2.36.45-.42,1.01-.87,1.1-1.26.16-.66-.13-1.92-.16-2.99-.01-.49.06-1.07,0-1.57-.05-.47-.3-.82-.32-1.26-.09-2.03.08-4.19,0-5.82-.2-4.24-.22-8.16-.32-11.95-.2-8.43-.29-16.26-.63-24.05-.88-20.11-1.33-40.06-1.89-59.9-.77-27.67-1.62-55.98-2.52-83.8-12.16,32.59-24.85,65.82-36.95,98.73-12.76,34.73-26.18,70.01-39.31,105.18-.88,2.34-1.55,5.23-2.67,6.29-.94.88-2.35.92-3.62,1.73h-60.06s0-.16,0-.16c-1.8-.21-1.74-.36-1.57-2.2.05-.53.21-1.01.32-1.41,1.6-6.12,9.11-9.18,14.15-10.85,5.71-1.89,13.32-3.77,17.77-7.23.69-.54,1.65-1.3,1.89-1.73.08-.15.06-.62.16-.94.08-.26.23-.68.32-.94,6.37-19.69,12.79-39.79,18.87-59.11,6.43-20.44,12.99-40.61,19.5-60.85,10.23-31.82,19.22-60.35,29.24-91.34,2.96-9.15,6.24-19.48,9.12-28.61.49-1.56.55-2.35.63-4.09.23-5.07-.32-10.04-.94-14.62-.13-.95-.11-1.96-.32-2.36-.2-.39-.08-.11-.47-.32-.96-.51-2.16-2-2.83-2.67-14-14-27.19-27.19-41.19-41.19-1.46-1.46-3.86-4.09-5.5-5.5-.57-.49-.39-.7-.79-.32-.07.07-.44,1.65-.63,2.36-1.6,6.03-3.1,11.98-4.56,17.45-1.34,5.05-2.59,9.9-3.93,14.78-.43,1.58-1,4.16-1.73,5.35-3.04,4.95-9.82,8.45-17.61,5.97-3.04-.97-5.69-2.54-8.02-4.09-2.51-1.66-4.38-3.79-6.45-5.66-.11-.1-.37-.08-.47-.16-.13-.1-.2-.35-.32-.47-.23-.25-.54-.5-.78-.79-3.3-3.77-6.93-7.62-10.06-11.16-2.69-3.04-5.65-6.44-8.49-9.59-.94-1.04-2.21-2.75-3.14-2.99-1.55-.39-3.68,0-5.34,0-1.95,0-3.84.17-5.5,0-1.38-.14-2.74-.78-4.24-1.26-5.57-1.78-10.87-3.47-16.51-5.35-1.61-.54-3-.95-3.14-2.36-.22-2.14,1.9-3.6,4.09-3.62,1.91,0,3.91.97,5.66,1.57,1.92.66,3.54,1.24,5.34,2.05.68-.06-.23-.56-.16-.47-.83-.98-1.61-1.99-2.36-2.83-1.05-1.2-2.32-2.35-3.3-3.46-1.17-1.32-2.88-3.17-2.67-5.34.1-1.08.86-2.5,2.04-2.83,1.39-.39,2.24.42,3.46.94.93-3.02,4.24-2.3,6.13-.94.32.23,2.06,2.19,2.2,2.2.45.04.69-.62,1.26-.94.56-.32,1.08-.54,1.73-.47,2.82.3,5.28,3.12,6.76,4.87.35.41.97.81,1.26,1.1.39.39,1.86.02,2.52,0,4.95-.17,8.83.99,11.64,2.67.42.25,1.11.99,1.41,1.1.5.19,1.23.05,1.73.16,1.64.34,3.01.95,4.25,1.73,1.38.88,2.42,2.42,3.61,3.62,3.72,3.72,7.44,7.21,10.85,10.85.49.38.23-.07.31-.31.43-1.17.51-2.47.79-3.78,1.85-8.61,4.1-18.07,5.98-26.25,1.16-5.06,3.01-10.46,5.5-13.99,1.9-2.69,3.85-4.29,6.61-5.98.95-.58,2.63-1.32,2.83-1.88.1-.28-.12-.57-.16-1.1-.03-.46.14-.91.16-1.26.08-1.89.06-2.66-.16-3.93-.13-.74-.26-1.21-.32-1.57-.17-1.12-.18-2.31-.47-3.3-.34-1.16-1.08-1.87-1.57-2.83-.44-.85-.78-1.83-1.1-2.67-.7-1.83-1.42-3.79-1.41-6.13,0-2.11.56-3.75,1.1-5.35,1.01-2.98,2.19-4.77,3.93-6.6,3.97-4.19,8.8-7.63,15.25-8.96.57-.12,3.2-.2,3.61-.47.28-.18.51-1.27.79-1.89.79-1.8,1.68-2.82,2.99-3.77s2.94-1.39,4.72-1.73Zm13.68,12.89c-.58-5.67-5.44-10.5-10.85-11-.75-.07-1.7-.09-2.52,0-1.24.13-2.88.83-3.62,1.41-1.27,1.02-1.98,2.38-2.52,4.4,8.18,1.78,14.04,5.87,16.67,13.2,2.44-1.08,3.14-5,2.83-8.02Zm-10.38.94c-2.68-2.1-6.33-4.41-10.38-4.72-5.22-.39-9.34,1.6-12.42,3.46-1.11.67-2.24,1.46-3.14,2.2-.07.06-.09.25-.16.31-.12.11-.35.05-.47.16-2.65,2.3-5.2,5.58-6.13,9.12.7-.1.81-.74,1.73-.63.53.07.54.5,1.1.94,2.52,2.02,6.28.75,8.96-.47.88-.4,1.84-.79,2.67-1.26,1.91-1.08,3.45-2.11,5.66-.94,2.19,1.15,3.54,3.15,4.87,5.19.21.32.85,1.3,1.42,2.52.15.33.47.93.63,1.26.11.24.11,1.27.79.94.22-.11.36.06.47-.16.31-.62.03-2.19.16-2.67.45-1.73,2.5-4.03,4.4-4.4,3.01-.59,4.07,1.46,5.19,3.93,2.19-6.47-1.95-12.12-5.34-14.78Zm-29.56,19.18c1.48.75,1.96,1.7,2.67,3.46.95,2.33,1.05,4.45,0,6.29-.99,1.73-2.82,2.27-.63,3.62.18.11,1.23.33,1.41.47.07.05.26.32.32.31.3,0,.73-.58,1.1-.79,1.25-.69,2.37-1.11,3.93-1.1,3.85.03,8.75,3.81,12.26,1.26.85-.62,2-2.7,2.36-4.09.64-2.49-.52-4.71-.79-6.6-.09-.6.08-1.33,0-1.73-.02-.08-.41-.45-.47-.63-.12-.33-.07-.7-.16-.94-1.09-3.01-2.52-5.34-4.4-7.39-.87-.95-2.16-2.64-3.46-1.89-3.08,1.77-8.51,5.39-13.68,3.93-.63-.18-1.85-1.08-2.2-.94-.34.13-.6,1.55-.94,2.36-.32.75-1.06,1.64-1.1,2.2-.04.58.56,1.2.47,1.89,1.79-.34,2.21-.24,3.3.32Zm28.77-3.62c.25-.36,1.22-.91,1.57-.79,1.04.36.45,1.96.16,3.14-.2.81-.31,1.67-.47,2.2-.12.39-.64,1.07-.63,1.1.01.08,1.16.99.79.94.78.09,1.34-1.46,1.73-2.2.51-.96,1.08-2.03,1.1-2.99.03-1.66-1.5-5.11-2.83-4.56-2.3.96-3.58,4.48-2.36,6.76.57-.91.39-2.82.94-3.62Zm-3.46,7.86c.25.98.57,2.03.63,2.99.21,3.03-1.26,5.58-2.99,7.07-1.13.97-3.34,1.74-5.03,1.73-3.73-.02-6.61-2.66-10.22-2.05-1.37.24-1.43,1.04-2.83,1.26-.21.03-.52-.14-.94-.16-.35-.02-.82.18-1.1.16-.44-.04-1.09-.48-1.26-.47-1.1.03-.2,3.75-.16,4.09.08.66-.06,1.26,0,1.57.17.97.71,1.6,1.26,2.36,1.65,2.3,4.51,3.81,8.65,4.09,5.61.38,10.54-.79,13.36-2.99,1.57-1.22,2.12-2.11,2.99-3.62,1.49-2.57,2.66-5.05,2.36-8.96-.16-2.08-.99-6.01-2.05-6.92-.77-.66-1.6-4.21-2.67-3.61-1.02.57-.24,2.53,0,3.46Zm-25.94.79c.41.17,1.17-.3,1.73-.16-.76-1.64-1.34-4.16-3.77-3.61.63,1.14.95,3.31,2.04,3.77Zm33.18,8.96c-.18,2.11-1.12,3.86-1.89,5.35.12.44-.02.16.16,0,.51-.44.74-.86,1.1-1.41.96-1.45,1.76-2.77,2.36-4.4.3-.83.71-2.18.63-2.83-.06-.43-.61-1.02-.94-1.57-.74-1.23-1.23-2.16-1.89-3.14-.26-.39-.47-1.29-1.1-1.1.61,2.55,1.83,5.99,1.57,9.12Zm-31.92-4.87c.07-.3.34-.39.32-.79-.24.03-.58-.05-.63.16.43-.11-.11.74.31.63Zm35.53,5.19c-.84,2.18-1.96,4.14-3.14,5.66-1.8,2.31-4.27,4.29-6.76,5.82-.84.51-1.67,1.04-2.36,1.26-.37.11-.69-.07-1.1,0-.21.04-.55.39-.79.47-2.41.88-5.29.9-8.33,1.1-.09,2.6.31,4.72.31,7.23.99-.46,1.38-1.47,2.05-2.2.63-.7,1.39-1.39,2.2-2.2.81-.81,3.43-3.93,4.72-3.93.79,0,2.14,1.23,2.99,1.89,2.91,2.26,5.12,4.84,7.86,6.76,2.59-4.74,5.83-10.64,8.33-15.72.38-.76,1.14-2.18,1.1-2.36,0,.05-1.22-1.04-1.26-1.1-1.67-2.42-3.44-4.28-4.72-6.6,0-.1-.03-.19-.16-.16.08,1.85-.41,2.7-.94,4.09Zm40.41,17.45c-.39-1.75-.49-3.82-1.1-4.87-.21-.37-.91-.93-1.57-1.42-.91-.66-1.84-1.24-2.67-1.73-.99-.58-2.05-1.11-2.99-1.57-2.72-1.33-6.05-2.85-8.96-3.14-1.95-.2-4.47,0-6.92,0-1.27,0-5.95-.42-6.92,0-.29.13-.16.21-.31.47-1.7,2.85-3.09,6.16-5.03,9.75-.87,1.61-2.32,4.24-3.3,5.98-.44.79-1.56,3.33-2.2,3.46-.57.11-2.85-1.66-3.14-1.89-2.34-1.83-3.92-3.3-6.13-5.34-.57-.53-1.74-1.75-2.2-1.73-.76.03-1.81,1.65-2.36,2.2-1.85,1.85-2.96,3.04-4.4,4.72-.9,1.05-1.43,2.05-2.67,2.05-2.19-.01-2.08-2.48-2.2-4.72-.04-.67.11-5-.16-5.35-.16-.2-.84-.05-1.57-.16-3.88-.54-6.72-1.95-8.65-4.25-.14-.17-.79-.86-.94-1.1-.3-.49-.74-2.4-1.1-2.52.02,0-.99.54-1.41.79-1.43.85-2.89,2.13-3.77,2.99-4.71,4.56-6.77,11.82-8.33,18.71-2.01,8.85-3.7,17-5.66,25.79-.32,1.44-.92,2.93-.79,3.77.07.42.34.48.79.94,1.01,1.04,2.36,2.36,3.15,3.14,1.49,1.49,3.66,3.42,4.56,5.03,1.01,1.81,2.13,3.64,2.83,5.5,1.59,4.21,2.1,9.09.47,12.73-.09.2-.35.42-.47.63.03-.06-.51.66,0,.63,5.49-1.63,7.51-5.9,9.12-11.79,3.12-11.46,5.71-21.98,8.8-33.18.15-.53.48-1.36.47-1.41-.09-.64-1.26-1.42-1.89-2.05-1.58-1.58-2.21-2.17-3.93-3.93-.18-.18-.78-.64-.94-.94-.24-.44-.36-1.05,0-1.41.96-.97,2.15.29,2.52.63.86.79,1.63,1.79,1.89,2.04,1.63,1.63,3,2.84,3.93,3.77,13.13,13.13,25.95,25.95,38.83,38.83,4.39,4.39,8.79,9.25,13.21,13.37.11.1.36.05.47.16.69.66,1.23,1.44,1.73,2.2-.26-.1-.92-.69-.79.16.53.67,2.26.15,3.3.31-3.98-15.47-8.53-31.49-12.58-47.01-.9-3.44-2.09-7.77-3.14-11.79-.13-.49-.5-1.33-.47-2.04.02-.67-.2-.32.16-.79.21-.27.18-.46.79-.47.94-.01,1.3,1.25,1.73,2.83.37,1.34.7,2.83.94,3.77,4.33,16.6,8.35,31.18,12.74,47.48.29,1.08.72,3.62.94,3.77.33.22,2.23-.05,3.3,0,8.47.39,15.97.05,21.07,0-5.28-24.04-10.73-47.97-16.04-72.01Zm18.08,71.38c.11.51.98,4.79,1.1,4.87.18.13,2.04,0,3.14,0h16.19c2.27,0,4.6.24,6.6,0,2.75-.33,5.64-2.05,7.23-3.46,1.06-.93,1.87-2.18,2.67-3.46,1.72-2.72,2.68-5.09,3.3-9.12.3-1.91.73-4.26.32-5.66-.21-.7-.79-1.1-1.57-1.89-13.77-13.76-27.43-27.43-40.88-40.88-4.73-4.73-9.26-9.62-14.31-14.15,0-.17-.2-.12-.16.16,5.37,23.71,11.07,49.25,16.35,73.58Zm-153.61-41.82c-.35-.14-.44-.55-.94-1.1-.51-.56-1.02-1.09-1.41-1.57-.15-.19-.47-.29-.63-.47-2.92-3.33-5.99-6.85-8.8-9.91-1.28-1.38-2.72-3.5-4.56-3.77-.83-.12-1.01,2.23-.94,2.51.09.34,1.12,1.38,1.57,1.89,1.49,1.68,2.94,3.11,4.25,4.56,1.45,1.61,2.96,3.27,4.25,4.72.54.61,1.03,1.27,1.57,1.89.54.61,1.36,1.14,1.57,2.04-1.3-.15-1.63.35-2.52,0-.48-.19-1.21-1.31-1.89-2.04-2.12-2.3-4.31-4.84-6.13-6.92-1.21-1.38-2.18-2.17-3.46-3.62-.6-.69-3.23-4.3-4.09-3.77-.89.55-.41,2.17.31,3.3.79,1.25,1.63,2.06,2.04,2.52,3.9,4.33,7.12,7.77,10.85,11.95.84.94,1.62,2.16,2.36,2.36.73.2,2.03,0,2.99,0h9.28c2.29,0,6.7-.35,9.12,0,.29.04,2.14.38,1.89,1.26-.11.37-1.11.55-2.05.63-2.48.22-6.4-.18-8.02,0-.17.36.34.48.47.63,2.11,2.25,4.13,4.72,6.13,6.92,3.74,4.11,7.46,8.39,11.16,12.42.57.62,1.04.94,1.57,1.41.28.25.38.59.63.79.29.22.71.24,1.1.47,1.02.59,2.08,1.18,3.3,1.41,3.19.62,4.77-1.4,5.66-3.61.6-1.5.99-3.4,1.1-5.03.24-3.55-.71-6.19-1.73-8.33-.92-1.93-1.48-2.27-2.83-3.62-4.07-4.07-8.04-8.04-11.95-11.95-.75-.75-1.34-1.62-2.05-2.05-2.09-1.26-5.67-1.3-8.65-.63-.6.14-3.78.99-3.93,1.26-.18.32,1.57,2.14,1.89,2.52.24.3.78.38.63.94-.93-.16-1.7.32-2.52,0-.47-.18-1.11-1.21-1.73-1.89-2.41-2.65-4.83-5.23-7.07-7.7-.29-.32-.46-.77-.79-1.1-.33-.33-.77-.45-1.1-.79-.43-.44-.97-1.42-1.73-2.04-.79-.66-2.07-1.39-2.52-1.26.01,0-.79,1.15-.78,1.1-.09.47.07.29.47.79.66.81,1.79,2.06,2.2,2.52,2.76,3.09,5.1,5.73,7.55,8.49.5.57,1.26,1.07,1.41,1.89-.99-.16-1.67.33-2.52,0Zm3.46-6.6c.57.64,1.17,1.49,1.73,1.57.25.04,1.14-.29,1.73-.47,1.84-.56,3.47-.99,5.19-1.42-2.64-1.34-6.42-2.38-10.53-1.73.76.56,1.13,1.2,1.89,2.04Zm-15.88,8.33c-.47-.53-.83-1.07-1.41-1.42-.76-.45-2-.64-3.3-1.1-1.02-.36-2.13-.89-3.14-1.26-1.19-.43-2.31-.75-3.3-1.1-1.14-.4-2.17-.96-3.3-1.1-1.2-.15-2.62.61-2.2,1.57,0,.02,1.64.65,2.04.79,5.64,1.87,10.63,3.28,15.72,5.03.05-.52-.61-.87-1.1-1.41Zm42.76,30.34c-.59.08.2.67.16.63.22.25.59.45.78.63,2.65,2.41,5.53,4.22,9.12,5.66,1,.41,3.53,1.49,4.72,1.26.12-.02.34-.26.63-.47,1.31-.95,1.97-1.72,2.36-3.3,1.27-5.09-.87-9.8-2.67-13.37-.72-1.42-1.48-2.58-2.52-3.61-1.09-1.09-2.2-2.1-3.14-2.99,0-.1-.02-.19-.16-.16,1.44,7.85-.61,17.5-9.28,15.72Zm164.77,4.4c-2.55,6.47-7.4,11.69-15.41,12.26-7.09.51-15.69-.37-24.53,0,.47.58-.05,1.3.32,1.73.41.48,1.99.31,3.46.31h18.87c2.71,0,5.41.26,7.71,0,2.5-.28,5.38-1.74,7.23-3.3,1.73-1.46,3.56-4.36,4.56-6.76.45-1.07,1.07-2.62,1.41-4.25.29-1.34.75-3.92.47-5.19-.26-1.19-1.88-2.44-2.36-3.3-.18,3.27-.77,6.07-1.73,8.49Zm-1.73,13.36c-2.1,1.47-4.77,2.24-7.55,2.83-.41.09-.87.27-1.26.31-2.2.24-4.67,0-7.07,0h-21.38c2.75,12.08,5.61,25.83,8.49,38.21.21.9.3,1.91.63,2.51.39.72,1.56,1.55,2.52,2.2.98.67,2.41,1.66,3.14,1.73.55.05,1.55-.34,2.36-.47,2.54-.42,5.1-1,7.55-.94,2.42.05,5.14.97,6.76,2.05,1.88,1.25,4.71,4.09,4.56,7.39-.04.87-.43,2.25-1.26,2.83-1.36.96-4.91.57-6.29,0-.7-.29-1.16-.61-1.73-.95-.1,1.62-1.69,1.62-2.83,1.73-3.47.35-7.98,0-12.26,0s-8.65-.03-12.26-.16c1.97,65.01,3.86,130.09,5.82,195.11,11.84,0,23.43.27,35.38.16,2.14-56.06,3.83-113.25,6.29-169.33.5-11.25.97-22.65,1.26-33.96.27-10.7,1.1-22.54,1.1-33.96s-.21-22.5-3.61-31.6c0-.1-.03-.19-.16-.16-1.22,6.19-3.82,11.42-8.18,14.46Zm-41.35-5.19c-.12-.48-.3-.18-.63-.16-6.48.39-16.25-.29-23.58,0,.55,2.55,1.34,5.15,2.04,7.71.1.35.58,2.64.63,2.67.22.15,1.76,0,2.83,0h20.91c-.72-3.46-1.38-7.05-2.2-10.22Zm-28.61,6.13c.65.55,2.75-.4,3.78,0-.31-.27-.17-1.83-.47-2.04-.76-.52-2.73.25-3.62.16.36.13.09,1.69.32,1.88Zm.32,12.89c-.11.54-.45,1.14-.63,1.73-.59,1.92-1.12,3.8-1.73,5.66-8.94,27.34-17.56,54.85-26.26,81.91-3.23,10.04-6.14,20.07-9.43,29.87-6.68,19.89-12.57,39.88-19.02,59.59-6.5,19.86-12.63,39.75-19.02,59.59,9.71,0,20.94,0,31.13,0,1.51,0,3.98.33,4.56,0,.06-.04.65-1.65,1.1-2.83,3.44-9.04,6.47-17.63,9.75-26.41,8.01-21.48,16.27-43.49,24.21-64.46,5.83-15.37,11.67-31.67,17.45-47.01,5.54-14.69,11.44-30.48,16.98-45.43.2-.54.56-1.03.63-1.42.32-1.8-.25-3.95,0-5.34-2.48-.15-5,.27-7.07-.16-1.77-.36-3.89-1.85-4.4-3.14-.81-2.02-1.13-4.39-1.73-6.6-3.86-14.34-7.51-28.45-11.48-42.92-.28-1.01-.92-3.29-.94-3.3-.67-.45-3.61.36-4.09,0-.22,2.22.65,7.42,0,10.69Zm65.09,38.68c-1.86-3.13-5.01-4.58-10.06-4.24-2.64.18-5.29,1.14-7.71,1.1-1.65-.03-2.2-.57-3.3-1.26-1.69-1.05-3.94-2.26-4.72-3.93-.3-.66-.27-1.46-.47-2.36-2.3-10.33-4.49-19.8-6.76-30.18-.34-1.55-.86-4.56-1.1-4.72-.2-.13-1.68,0-2.83,0h-20.75c1.94,8.1,4.29,15.9,6.6,24.53,1.54,5.75,3.27,12.34,4.88,18.24.72,2.64.93,6.06,2.83,7.23.36.23,1.61.76,1.73.79,1.25.25,2.84,0,4.25,0,8.99,0,18.54-.02,27.51,0,.95,0,1.17.35,1.57-.31.57-.95-.76-1.91-1.57-2.36-.99-.55-2.4-.86-3.46-.94-1.9-.15-7.5.48-7.55-1.1-.05-1.63,3.38-.67,4.25-.63.9.04,1.81-.03,2.67,0,.96.03,1.86.33,2.36.31.25,0,.61-.23.94-.31,2.37-.61,6.86-.79,8.65.63,1.32,1.05,1.55,2.95,2.52,4.24,1.04-1.71.15-3.68-.47-4.72Zm-2.04,5.03c-.57-2.05-1.48-4.59-4.4-3.78,1.62,1.1,1.84,3.62,4.4,3.78Zm-135.05,196.68c-1.48,0-3.86-.35-4.56,0-.69.35-.87,2.2-1.1,2.99-.23.78-.4,1.8-.79,2.52-.44.81-1.87,1.85-3.14,2.67-2.55,1.65-5.16,2.61-8.02,3.62-1.51.53-2.95,1.12-4.25,1.57-4.44,1.56-9.12,2.68-12.58,4.88-2.93,1.86-4.77,3.94-5.66,7.54h52.67c2.65,0,5.75.46,7.39-.16,2.09-.78,2.48-3.36,3.46-5.98,2.53-6.77,5.11-13.16,7.39-19.65h-30.82Zm109.74,6.6c-.05.45-.31.56-.32.63-.08.63.18.97,0,1.41-.75,1.87-3.56,2.73-5.82,3.61-2.11.83-4.31,1.99-6.6,2.99-1.99.87-4.2,1.79-6.13,3.46-.81.69-1.59,1.48-2.36,2.36-.91,1.05-1.82,2.1-1.57,3.3.01.06,1.08,1.33.94,1.26.54.29,2.1.16,3.3.16h45.59c1.73,0,6.31.37,6.92-.16.31-.27.24-1.5.32-2.67.48-7.28.45-13.88.79-20.75h-35.06c-.18,1.16.13,3.19,0,4.4Z"/>
    <path class="cls-3" d="m320.54,157.73c1.67-.22,3.51.4,4.72,1.57.82.79,1.71,2.19,0,2.04-1.1-.1-2.52-1.87-3.61-2.04-.89-.14-1.99.56-2.83.47.19.02-.89-.33-.94-.47-.4-1.05,2.07-1.5,2.67-1.57Z"/>
    <path class="cls-3" d="m322.11,163.39c.84-.12,1.07.24,1.57,1.57.3.8.74,1.95.47,2.36-.36.55-1.92.25-2.36-.16-.27-.25-.92-2.67-.78-2.99.2-.49.58-.71,1.1-.79Z"/>
    <path class="cls-3" d="m321.01,174.4s.17-.16.31-.16c1.06-.02,2.45.93,2.36,2.36-.08,1.28-1.99,2.16-3.62,2.2-1.39.03-5.15-.87-4.4-2.36.03-.07.29-.11.32-.16.26-.65.37-1.1,1.41-1.26.5-.08.96.11,1.57,0,.84-.16,1.34-.56,2.05-.63Zm-2.52,2.52c.87.4,3.77.24,2.52-.94-.54.62-1.73.57-2.52.94Z"/>
  </g>
  <g>
    <path class="cls-2" d="m336.67,422.8c-5.79,3.51-10.85,8.96-10.85,8.96l-31.61-30.82,2.2-5.19-54.25-53.3-.16-14.94s8.95,2.21,13.84-5.66c4.89-7.87,30.03-50.95,30.03-50.95,0,0,4.25-5.65-1.1-7.08-5.35-1.42-61.64-.47-61.64-.47,0,0-5.49,0-9.59,7.08-4.1,7.07-7.86,15.09-7.86,15.09l-6.76-34.59s-1.69-8.44-8.49-8.65c-6.8-.21-20.13.32-20.13.32l1.57-8.02,25.79-.47s6.72-.24,5.35-6.45c-1.38-6.21-10.22-30.03-10.22-30.03,0,0-12.1-20.42-26.1-16.04-14,4.38-23.97,15.16-24.84,24.37-.87,9.21,3.92,24.41,6.29,25.94,2.37,1.54,10.38,3.46,10.38,3.46l-2.2,7.39-14.78-.16s-7.08-5.12-19.18,14.78c-12.1,19.9-32.39,55.98-32.39,55.98,0,0-4.05,8.36.79,12.42,4.84,4.06,11.16,2.67,11.16,2.67l-16.67,31.45s-6.9,22.29,2.04,33.65c10.74,13.64,24.37,10.22,24.37,10.22,0,0,72.15-.93,72.17.31.03,1.25.63,75.16.63,75.16l27.99.63,17.45,64.78s.68,5.55,6.13,5.82c5.46.27,58.49-.16,58.49-.16,0,0-1.75-8.2-7.7-11.16-5.95-2.96-16.24-2.41-19.03-11.16-2.79-8.75-12.11-47.8-12.11-47.8h4.87l-10.38-39.31,14.78-10.85,44.19,40.73s8.93,7.23,14.31,1.57c5.38-5.66,28.78-52.36,28.78-52.36,0,0-9.77-.69-15.57,2.83Zm-149.22-106.92s-2.16-.17-10.06,2.05c-7.9,2.22-17.61,5.97-17.61,5.97l-1.26-2.2s1.89-1.72,3.3-2.67c1.41-.95,6.6-3.77,6.6-3.77,0,0,.31.25,1.57.47,1.26.22,1.65-1.89,1.42-5.19-.24-3.3-3.3-5.82-3.3-5.82l2.04-2.52s2.23.39,2.99-.47c.76-.86-.16-2.83-.16-2.83l2.36-1.42s3.18-1.34,5.66-2.67c2.48-1.33,5.03-3.62,5.03-3.62l3.61,21.39-2.2,3.3Z"/>
    <path class="cls-1" d="m288.09,451.1s12.33-13.37,15.25-16.82c2.93-3.45,11.95-12.58,11.95-12.58l4.87,4.72s-10.64,13.28-14.94,18.08c-4.3,4.8-11.48,11.48-11.48,11.48l-5.66-4.87Z"/>
    <path class="cls-1" d="m223.31,518.4l1.89,7.23,41.98.79-1.57-7.23-42.3-.79Z"/>
    <path class="cls-1" d="m117.17,309.11l44.19,1.26-3.62,8.81,2.52,9.43,82.24,12.42,54.09,54.88s-13.63,18.28-24.37,27.67c-10.74,9.39-22.17,16.51-22.17,16.51l10.22,39-1.89,1.1-72.49.31-1.41-1.57-.79-75.16h-82.08s-23.72-4.81-18.87-35.07c1.23-7.67,5.19-13.37,5.19-13.37l29.25-46.23Z"/>
    <path class="cls-2" d="m113.08,314.46l27.99-.16,5.34-6.76,16.04,1.89-1.73,3.46s.15,3.72-2.52,4.56c-2.66.83-6.13-.47-6.13-.47,0,0-1.22,8.85-3.3,10.38-2.08,1.53-47.17.94-47.17.94l3.93-12.58,7.55-1.26Z"/>
    <path class="cls-1" d="m158.05,235.05l3.3-12.58s-9.67-.84-7.86-6.92c1.21-4.07,5.19-2.2,5.19-2.2,0,0,6.39-2.65,8.18-7.55,1.78-4.9,1.26-12.27,1.26-12.27,0,0,8.07.17,12.89,4.09,4.82,3.92,6.45,8.02,6.45,8.02,0,0,1.09,12.78-2.2,16.82-4.78,5.88-12.89,5.66-12.89,5.66l-.63,5.66,22.96.94s5.94,1.28,7.55-3.3c1.6-4.58,1.09-5.42-4.09-18.87-5.18-13.45-12.55-32.77-25.79-31.45-16.13,1.61-29.05,11.05-30.82,22.96-1.77,11.9,4.46,25.78,6.29,27.36,1.83,1.58,10.22,3.61,10.22,3.61Z"/>
  </g>
  <g>
    <path class="cls-3" d="m294.1,550.92h-.47c-18.29-.29-36.89-.16-55.82-.16-1.45,0-3.69.32-4.25-.32-.13-.14-.16-.35-.31-.47-.33-.27-.8-.38-1.1-.63-2.72-2.28-3.4-5.72-4.56-10.06-.77-2.88-1.71-5.76-2.36-8.18-4.16-15.61-8.11-29.96-12.26-45.91-.37-1.4-.87-3.94-1.1-4.09-.34-.22-2.51,0-3.61,0-7.61,0-15.12-.05-22.8,0-.07,0,.07.37-.47.16-.43-.17-1.38-.99-1.57-1.73-.15-.6,0-1.46,0-2.36v-67.92c0-1.5.22-4.45,0-4.72-.24-.29-3.31-.21-5.03-.16-22.02.61-43.79.16-65.88.16-3.3,0-6.89.38-10.06,0-.77-.09-1.46-.5-2.36-.79-2.33-.74-4.86-1.46-6.6-2.67-.51-.35-1.14-.92-1.73-1.41-1.6-1.34-3.13-3.16-4.4-4.87-3.43-4.64-5.94-10.46-6.13-18.71v-.94c.24-1.23.16-2.85.32-4.25.55-4.87,2.1-9.13,3.61-12.73.4-.95.91-1.77,1.42-2.67,3.06-5.52,5.69-10.21,8.96-15.88.09-.15.38-.31.47-.47,1.12-1.96,2.22-4.09,3.3-5.97.66-1.14,1.42-2.24,1.89-3.3.19-.45.41-.23,0-.47-.41-.24-1.87,0-2.67,0-2.92,0-4.19-.16-5.98-1.26-2.99-1.83-5.64-5.35-5.34-9.43.17-2.28,1.31-4.57,2.52-6.6,8.03-13.59,15.75-27.46,23.43-40.72,3.47-5.99,7.31-12.93,10.85-18.71.91-1.49,1.79-2.99,2.83-4.25,2.9-3.5,6.92-5.78,11.48-6.76,3.16-.68,8.67-.32,13.05-.32.9,0,4.2.33,4.72,0,.4-.26.62-2.29.79-2.99.32-1.34.55-1.69.63-3.14-2.74.1-4.56-.17-6.45-.94-1.39-.57-3.83-1.75-4.56-2.83-.4-.58-.5-1.54-.79-2.36-.68-1.93-1.51-3.77-2.2-5.66-1-2.71-2.17-5.48-2.52-8.02-.46-3.4-.55-6.84,0-9.91,1.52-8.5,6.48-14.8,12.42-19.02,4.08-2.9,8.95-5.42,14.78-6.29,6.32-.95,12.02,1.59,15.88,4.72,2.04,1.65,3.68,3.43,5.19,5.35,1.62,2.06,2.83,4.17,4.09,6.44.16.28.51.39.63.63.15.32.19.64.32.94.28.65.53,1.24.79,1.89.51,1.31.74,2.7,1.26,4.09,1.87,5.05,3.87,9.93,5.82,15.25.52,1.41,1.04,3.49,1.73,4.72.18.32.49.49.63.79.8,1.76.48,4.24-.16,5.66-.69,1.53-1.47,2.06-2.67,2.99-1.18.91-1.45,1.29-2.83,1.42-5.34.48-13.29.31-19.81.31-.95,0-6.24-.37-6.76,0-.04.03-.19.87-.32,1.41-.42,1.8-.69,3.26-1.1,4.56h16.04c1.86,0,3.49-.25,4.87.16,3.47,1.02,6.43,3.95,7.86,7.23.67,1.54.93,3.36,1.26,5.19,1.7,9.51,2.93,18.89,4.72,28.3.13.25.04.01.16-.16,2.15-3.17,3.94-6.71,5.81-9.9.7-1.19,1.14-2.53,1.89-3.62.74-1.09,1.75-2.03,2.83-2.99,1.03-.91,2.12-1.97,3.3-2.52,2.24-1.03,6.14-.63,9.59-.63h39.15c5.27,0,10.47-.23,15.72,0,1.26.06,1.45.34,2.2.94,1.02.82,2,2.44,2.05,3.62.06,1.52-.95,2.69-1.73,4.25-.7,1.38-1.32,2.76-1.89,3.77-1.45,2.62-3.04,5.11-4.24,7.23-5.63,9.95-11.03,19.2-16.67,28.93-1.88,3.25-4.15,7.48-6.29,10.69-.83,1.25-1.52,2.66-2.36,3.46-.92.87-2.37,1.71-3.77,2.2-1.57.55-3.44.47-5.5.47-28.51,0-55.43-.13-83.64.16,1.04,3.28,1.85,6.27,2.83,9.75.13.47.75,3.19.94,3.3.18.1,1.86-.2,3.3-.47,3.3-.64,6.78-1.38,9.43-1.89,11.24-2.16,21.16-3.88,32.07-5.98,2.22-.43,4.39-1.18,6.45-1.26.15,0,.32-.01.47,0,8.17.9,14.98,3.09,20.6,6.45,1.92,1.15,3.88,2.4,5.34,3.77.77.73,1.19,1.69,1.89,2.52.69.81,1.61,1.46,2.36,2.2,4.64,4.64,8.98,8.98,13.68,13.68,10.9,10.9,21.71,21.93,32.86,32.7.81.78,3.31,2.81,3.3,3.62,0,.16-.65,1.11-1.1,1.73-.27.37-1.32,1.35-1.26,1.73.02.09,1.14,1.01,1.89,1.73,5.9,5.68,11.31,11.31,16.98,16.98,1.18,1.18,2.54,2.23,3.93,3.62.58.58,1.13,1.26,1.89,1.89.66.55,1.37,1.06,2.04,1.73,1.45,1.44,3,3.53,3.93,3.61.6.05.71-.42,1.26-.94,2.44-2.34,4.54-4.03,7.23-5.66,1.09-.66,2.28-1.41,3.3-1.89.98-.45,2.41-.76,3.77-1.26,1.33-.48,2.56-.98,3.93-1.26,1.9-.39,7.6-1.12,8.18.94.29,1.07-.75,2.36-1.1,2.99-.81,1.45-1.64,2.97-2.36,4.25-4.04,7.23-7.29,13.34-11.16,20.28-4.33,7.76-8.66,15.76-13.05,23.58-.67,1.2-1.5,2.95-2.05,3.3-.17.11-.39-.17-.47-.16-.03,0-.38.28-.47.31-1.76.69-3.15,1.19-5.03.94-2.99-.39-6.64-1.71-8.49-2.83-1.06-.64-2.51-2.23-3.46-3.15-2.46-2.38-5.3-4.93-7.7-7.07-.92-.82-1.84-1.63-2.83-2.52-1.03-.93-2.26-2.02-3.3-2.67-.17-.11-.18-.21-.32-.32-1.76-1.47-3.27-3.07-4.87-4.56-3.77-3.51-7.27-6.6-11.16-10.22-2.42-2.25-5.33-5.33-8.02-8.02-.98-.98-2.31-2.66-2.67-2.67-.21,0-.52.41-.79.63-.65.56-1.17.94-1.73,1.41-3.06,2.57-5.62,4.49-8.65,6.61-.78.54-2.55,1.5-2.67,2.04-.04.16.37,1.41.63,2.36,2.97,11.03,5.57,20.54,8.49,31.45.43,1.59,1.2,4.76.79,5.34-.57.82-3.37.03-4.25.32,3.83,14.42,8.16,30.11,11.95,44.65.32,1.23.66,2.83,1.1,3.62.23.41.82,1.11,1.26,1.57.48.5,1.09,1.04,1.57,1.41,3.55,2.79,8.26,3.36,12.58,5.35,2.34,1.07,4.55,2.46,6.13,4.09.26.27.36.63.63.94,1.15,1.37,5.99,7.18,1.89,8.18Zm-102.04-317.43c2.95,0,6.33.3,7.86-.63,1.59-.97,2.77-3.35,2.67-5.03-.04-.69-.57-1.64-.94-2.67-2.5-6.82-4.65-12.75-7.07-19.34-1.28-3.47-2.74-7.43-4.56-10.38-.44-.71-1.07-1.49-1.57-2.2-3.46-4.92-8.71-10.48-16.04-11.16-1.17-.11-2.85-.08-3.77,0-3.22.28-6.61,1.52-9.43,2.99-9.2,4.77-17.25,13.95-16.19,26.73.15,1.75.2,3.62.63,5.35.28,1.11.86,2.24,1.26,3.3.85,2.26,1.71,4.42,2.52,6.6.33.89.62,2.58,1.26,3.46.17.23.62.46,1.1.79,1.11.74,2.63,1.54,3.93,1.88.85.23,3.6.89,4.25.47.29-.19.45-1.91.63-2.67.74-3.07,1.37-5.62,2.04-8.18-4.01.87-8.05-1.89-8.49-5.03-.41-2.91,1.74-5.21,3.93-5.5.99-.14,1.61.39,2.2.32.06,0,.59-.32.94-.47.38-.17.8-.33,1.1-.47,4.78-2.29,6.98-7.68,6.92-14.15-.01-1.57-.4-2.69,0-3.93.69-2.1,4.3-.74,6.29-.16,2.15.63,3.61,1.39,4.88,2.04,5.52,2.83,9.59,6.42,12.26,11.95.37.77.97,2.33.63,2.67-.35.35-1.23.13-1.57,0-.42-.16-.67-1.14-.78-.47.61,4.83-.48,9.04-2.05,12.1-.42.82-.76,1.74-1.26,2.36-2.07,2.6-5.47,4.52-9.12,4.87-.67.06-2.19-.33-2.67,0-.28.19-.34,1.8-.47,2.36-.25,1.03-.57,1.71-.63,2.2h19.34Zm-22.64-36.63c.08,1.24-.54,4.68-.31,5.03-.02-.03,1.22.36,1.57.47.71.23,1.1.42,1.57.63.41.19,2.9.92,2.36,1.89-.12.21-1.07.36-1.57.31-1.05-.1-3.39-2.06-4.4-1.41.02-.02-.4,1.35-.47,1.57-.6,1.86-.95,2.5-1.89,3.77-1.57,2.16-3.63,3.47-5.97,4.56.63.3,1.1.78,1.57,1.26.35.35,1.43,1.2,1.1,1.89-.05.1-.92.59-1.57.47-.43-.08-.72-.54-1.1-.94-.83-.88-1.32-1.5-2.2-1.89-2.18-.95-3.64.77-3.77,2.04-.25,2.37,2.05,4.43,3.77,4.72,1.47.24,2.21-.45,3.15-.32.41.06,1.41.59,1.57,1.26.09.38-.42,1.93-.63,2.83-1.41,5.94-2.67,10.99-4.09,16.98-.15.63-.44,2.6-.79,2.83-.54.35-1.35-.24-2.04.16-.07-.2.24-.57.31-.94.14-.71.14-.6-.16-.78-.42-.27-2.38,0-3.62,0-3.71,0-9.9-.02-11.79,0,8.8,2,13.04,5.59,18.86,11,3.54,3.28,7.77,7.28,11.64,10.85.57.52,3.33,3.65,3.93,3.62,0,0,.49-.56.94-.94,2.64-2.21,5-4.75,6.6-7.23,2.67-4.15,4.45-8.52,3.77-14.62-.02-.15-.48-2.68-.47-2.67-.35-.27-2.61,0-3.62,0h-11.16c-.32.31-.2,1.05-.47,1.41-.38-.53-1.55-.71-1.73-1.57-.06-.27.3-.99.47-1.73,1-4.28,2.16-9.24,2.99-12.89-1.41-.1-2.36-.59-3.77-1.1-.25-.09-1.75-.46-1.89-.63-.43-.53-.53-1.58,0-1.89.17-.1,1.75.58,1.89.63,1.95.76,3.87,1.56,6.29,1.73,4.75.33,8.23-2.27,10.06-5.34,2.71-4.54,2.73-11.09,1.57-16.35-.13-.6-.34-2.41-.94-2.83-.14-.09-1.2-.14-1.1-.16-1.44.21-2.9,2.43-3.14,3.77-.23,1.26-.07,2.95.47,3.77.58.87,1.68.99,2.67,1.57.84.49,1.92,1.35,1.89,2.52,0,.31-.54,1.58-1.1,2.05-.4.33-1.92,1.08-2.36.31-.26-.46.2-.94.47-1.41.34-.6.83-.6.63-1.41-.23-.94-2.72-1.37-3.77-2.67-.52-.65-1.06-1.69-1.1-3.14-.09-3.58,2.13-6.2,4.72-7.07-3.95-3.02-7.94-6-14.31-6.6-.1,0-.19.02-.16.16.39.47.56,1.41.63,2.52Zm31.92,92.92c.67-1.17,2.39-3.49,2.52-4.56.12-.94-.35-2.65-.63-4.25-1.47-8.44-3-17.47-4.4-25.47-.35-2.01-.53-4.08-1.1-5.5-.74-1.85-1.94-3.65-3.3-4.72-.42-.33-.73-.85-1.1-1.1-1.44-.98-3.6-1.08-5.66-.94-.1,0-.19.02-.16.16.54,1.67.85,4.64.63,7.54-.38,5-3.78,10.77-6.76,13.99-.62.67-1.41,1.26-2.2,2.05-1.24,1.24-3.34,3.56-4.87,3.46-.23-.01-.2-.25-.63-.47-.41-.21-.77-.06-.94-.16-.35-.2-.53-.58-.94-.94-1.38-1.2-2.88-2.47-4.09-3.62-3.7-3.54-7.46-7.2-11.16-10.53-4.59-4.13-9.75-8.95-17.61-9.9-1.13-.14-2.48-.45-3.3-.32-.82.13-1.74.84-2.67,1.41-3.11,1.94-4.64,4.05-6.6,7.23-1.25,2.04-2.53,4.13-3.61,6.13-2.31,4.26-4.8,8.39-7.08,12.27-5.03,8.57-9.43,16.4-14.15,24.52,5.63-1.07,12.66.28,16.04,3.14,1.13.96,1.64,2.21,2.52,3.3,1.62-2.47,2.73-4.87,4.09-7.23.18-.32.59-.6.79-.94.6-1.03,1.04-2.23,1.57-3.15.2-.35.58-.58.79-.94.41-.71.69-1.48,1.1-2.2,2.42-4.19,5.58-9.24,8.02-13.99.08-.15.38-.3.47-.47.69-1.21,1.69-3.97,2.51-4.09.31-.05,1.49.68,1.57,1.1.03.15-.29.82-.63,1.41-.69,1.22-1.02,1.73-1.57,2.67-1.35,2.33-2.92,5.04-3.93,6.76-4.66,7.94-9.61,16.22-13.99,24.21-.07.12.06.35,0,.47-.02.05-.27.1-.31.16-.49.66-.82,1.29-1.26,2.04-.85,1.45-2.01,3.21-2.67,4.72-.22.51-.42.23,0,.47.67.4,4.13,0,5.82,0h11.95c1.36,0,5.01.37,5.98,0,.35-.13.97-1.24,1.41-1.89,3.06-4.43,5.65-8.06,8.33-12.42.5-.81.82-1.79,1.26-2.2.14-.13.46-.06.63-.16.22-.12.34-.41.47-.47.38-.19.91-.32,1.26-.47,5.84-2.58,13.68-1.6,18.08,1.26,1.16.75,1,.89,1.89.16.38-.31.59-.47.94-.63.36-.16.78-.2,1.1-.31,2-.71,4.47-2.04,5.82-3.3,2.34-2.19,4.76-4.63,5.97-7.71,1.11-2.82,1.06-7.05.47-10.22-.2-1.05-.65-2.13-.47-3.14.21-1.21,1.37-1.65,2.2-2.99.7-1.13,1.33-4.25,2.83-2.67.76.8-.37,2.2-.63,2.67-.24.44-.54,1.22-.94,1.73-.58.73-1.14.67-1.26,1.42-.05.28.35,1.1.47,1.73.4,2.03.79,4.43.79,6.29,0,3.4-1.2,6.21-2.52,8.33-.53.85-1.31,1.65-1.41,2.36-.08.55.19,1.59.31,2.36.88,5.24,1.88,11.04,2.83,15.88,3.49-5.98,7.54-12.99,11.16-19.34Zm27.99-25.31c-2.84,0-5.79-.35-7.86.16-1.93.48-3.9,2.08-5.03,3.46-.69.84-1.15,1.98-1.73,2.99-2.01,3.47-4.24,7.25-6.13,10.53-.63,1.1-1.18,2.05-1.73,2.99-.63,1.09-1.18,2.03-1.73,2.99-.93,1.63-1.8,3.07-2.67,4.56-4.1,7-7.8,14-12.11,21.07-.27.44-.67.95-.94,1.41-.49.82-.49,1.32-.94,1.57-.33.18-1.35.17-2.05.32-.73.16-1.44.32-2.04.47-6.91,1.75-12.63,3.32-19.18,5.5-1.88.63-4.38,1.66-5.66,2.99-.39.41-.6.24-.16.47.63.34,4.17,0,5.66,0h79.55c1.96,0,4.11.22,5.66-.16,2.2-.54,4.19-2.66,5.19-4.4.74-1.28,1.34-2.41,2.05-3.61,1.71-2.94,3.61-6.2,5.19-8.96,7.2-12.64,14.68-25.1,21.86-37.89.78-1.39,1.63-2.2,1.26-4.09-.17-.87-.66-1.84-.94-2.04-1.07-.75-4.54-.47-7.23-.47-8.15,0-17.57-.11-23.9.16-7.23.3-16.66,0-24.37,0Zm-50.16,32.55c-1.33.67-4.48,1.32-4.72,2.83-.05.3.27.52.32.79.29,1.74-1.04,2.16-2.2,2.36-.57.1-1.43-.19-1.89,0-.21.09-.92,1.18-1.1,1.41-.8,1.06-.05.88.79,2.05.44.61.71,1.4.94,1.89,1.29,2.62,2.29,7.69-1.41,8.02-1.04.09-1.36-.41-2.05-.31-.38.05-1.5.8-2.36,1.26-1.83.98-2.51,1.63-3.93,2.67-.48.35-1.26.66-1.57,1.26-.15.29-.28.04-.16.47.29,1.07.77.72,1.73.32,3.61-1.51,8.14-2.93,11.48-3.93,3.92-1.18,8.95-2.25,13.05-3.3,1.24-.32,1.17-.43,1.73-1.41.85-1.49.47-1.8.16-3.62-.95-5.41-1.89-12.32-2.83-16.82,0-.1-.02-.19-.16-.16-1.41,1.39-3.51,3.09-5.82,4.24Zm-25.63,19.81c2.7,1.1,6.37-.73,5.82-3.62-.19-1.01-1.18-1.54-2.05-2.04-1.86-1.09-3.7-1.83-5.5-2.67-.86-.41-2.5-.91-2.2-1.73.36-.97,1.56-.59,2.83,0,2.46,1.14,3.57,1.68,5.5,2.67.73.37,2.05,1.07,2.52,1.57.45.47.83,1.94,1.26,2.04.36.09,1.48-.73,1.73-1.26.09-.19.15-.66.16-.79.04-.47-.05-1.32-.31-1.73-.16-.24-.87-.58-1.26-.79-1.21-.65-1.73-.86-2.67-1.41-1.42-.83-2.33-1.5-3.93-2.36-.8-.43-2.6-.88-2.36-1.89.29-1.2,2.27-.16,3.46.47,1.87,1,3.48,2.14,5.03,2.99.61.33,1.32.45,1.89.79.53.31.93.87,1.41,1.26.28.23.59.29.79.47,1.07,1,1.28,2.22,2.2,3.62.1.15.48.25.63.47.43.61.78,1.99,1.41,1.57.7-.46.42-2.58.31-3.15-.16-.87-.62-1.83-.94-2.52-1.51-3.13-4.55-5.13-7.55-6.44-.83-.36-2.05-.94-4.09-1.26-.53-.08-1.28,0-2.52-.16-.67-.08-1.79-.18-1.89-.79-.24-1.56,3.16-.7,4.4-.79,1.7-.12,2.81-.71,4.4-.79,2.51-.12,4.23.42,6.13,1.26.51.22,3.7,2.13,4.25,1.41.74-.98-2-2.72-2.99-3.3-3.11-1.82-8.79-2.57-12.89-1.41-.72.2-2.92,1.11-3.3,1.41-.35.28-.93,1.3-1.41,2.04-2.91,4.48-5.47,8.6-8.33,12.89-.21.31-.55.62-.79.95-.34.46-.52.95-.79,1.1-.84.46-2.91.32-4.72.32h-25.16c-1.64,0-9.27.52-9.59-.63-.44-1.6,4.04-1.1,5.03-1.1,1.34,0,5.72.27,6.29,0,.25-.12.84-1.43,1.1-1.89.43-.74.88-1.66,1.1-2.04.6-1.04,2.08-2.95,2.2-4.09.18-1.71-1.2-3.84-1.89-4.56-2.5-2.64-7.86-3.96-13.05-3.46-.98.09-2.31.27-2.99.79-.63.47-1.37,2.49-2.2,3.93-.16.28-.49.54-.63.79-.65,1.13-1.16,1.98-1.73,2.99-.73,1.28-1.45,2.63-2.2,3.93-1.13,1.95-2.24,3.67-2.99,5.66-.56,1.47-1.08,3.37-.78,5.35.19,1.25.86,2.01,1.41,2.83.92,1.36,2.44,2.89,3.61,3.46,1.73.84,4.98.48,7.55.47,12.11-.05,25.04,0,37.89,0,2.12,0,4.74.4,6.13,0,1.55-.44,2.65-2.63,3.3-4.25.44-1.08.85-2.99,1.26-4.4.18-.61.5-1.21.47-1.41-.06-.45-1.18-1.23-1.26-2.36-.05-.82.56-1.76.47-2.05-.12-.41-.98-.47-1.26-.79-.27-.31-.75-1.13-.32-1.57.89-.9,3.05,1.12,3.93,1.73.72.5,2.08,1.12,2.83,1.73.03.03.79.56.63.94-.24.59-1.68.32-2.2.16-.94-.29-.93-.85-1.89-.79.19,1.47.36,1.83,1.26,2.2Zm11.16-15.09c.56.3,2.23,1.79,2.67,1.73.4-.05,1.22-1.23,1.1-1.57.03.1-.78-.32-1.1-.47-1.64-.78-3.91-1.45-5.82-.95.87.38,1.9.59,3.14,1.26Zm-.79,12.26c-.24.14-.6.37-.94.47-.42.13-1.22.01-1.41.16-.14.1-.34.68-.47.94-.15.31-.24.81-.47,1.1-1.23,1.51-3.95,2.05-5.66,2.04-.4,0-1.24-.38-1.57-.16-.22.14-.32,1.33-.47,1.89-.61,2.3-1.23,3.84-2.05,5.5.02.18-.23.25,0,.32,5.19-4.03,9.47-8.97,16.04-11.64-.45-.8-.82-1.7-1.42-2.36-.46.97-.86,1.33-1.57,1.73Zm-29.56,33.33c1.01-.37,2.36-.39,3.62-.63,7.88-1.51,15.64-3.07,23.58-4.56,1.75-.33,2.06.01,1.73-1.26-.91-3.56-1.74-5.97-2.67-9.43-.12-.46-.81-3.37-.94-3.46-.27-.18-1.53-.06-2.2-.16-.72-.1-1.68-.02-1.89-.47-.25-.56.88-1.59,1.26-2.05.63-.74,1.48-1.12,1.1-2.04-.14-.38-.54.09-.63.16-1.34,1.13-2.58,2.17-3.77,3.15-1.78,1.47-3.64,3.08-6.76,2.99-11.47-.33-24.69-.16-36.95-.16-1.7,0-4.74-.38-5.66,0-.27.11-.76,1.02-1.26,1.89-2.8,4.87-5.78,10.05-8.33,14.46-1.75,3.02-3.16,5.68-4.72,8.33-.77,1.31-1.75,2.58-2.36,4.09-.17.41-.16.88-.31,1.26-.17.42-.46.7-.63,1.1-2.96,7.06-3.93,17.22-1.57,24.84,2.31,7.45,7.53,14.15,14.46,16.51.96.33,2.18.81,3.14.94,2.98.4,5.14-.51,7.23-1.1,3.99-1.13,7.84-2.35,11.64-3.46,36.55-10.67,73.06-21.37,108.95-31.92-.18.96,1.07,1.24,1.26,1.57.34.59.44,1.62.63,2.36,5.97,22.98,12.4,46.22,18.39,68.86.27.16.44-.19.63-.31,5.31-3.35,9.99-7.51,14.46-11.48,1.47-1.3,2.93-2.72,4.24-3.93.5-.46,1.09-.8,1.57-1.26.46-.43.81-.98,1.26-1.41.49-.46,1.08-.8,1.57-1.26,3.61-3.35,7-7.15,10.69-11.16,1.59-1.73,3.33-3.64,5.19-5.82.18-.21.27-.53.47-.79.43-.54,1.06-.97,1.41-1.41.23-.28.23-.64.47-.94.74-.95,2.41-2.56,2.36-3.14-.01-.16-1.39-1.54-2.04-2.2-3.98-3.99-7.12-7.2-10.85-10.85-1.52-1.49-3.18-2.86-4.56-4.25-7.24-7.24-14.66-14.82-21.7-21.85-1.47-1.47-3.09-2.78-4.56-4.24-2.85-2.85-5.59-5.95-8.65-8.81-4.96-4.62-12.57-8.3-20.75-9.75-1.31-.23-2.6-.65-3.77-.63-.77,0-1.75.3-2.67.47-28.57,5.39-56.74,10.84-84.9,16.19,1.33-.98,2.27-2.43,3.77-2.99Zm94.65,21.7c-9.57,2.56-19.03,5.73-28.61,8.49-28.98,8.35-57.83,16.81-86.47,25.31h64.77c1.51,0,4.01.24,4.4,0,.32-.2.24-.01.31-.47.19-1.13,0-1.78,1.1-1.73,1.28.06,1.1,2.47,1.1,3.93v15.41c0,6.54-.17,14.95-.16,19.18.03,13.45,0,26.21,0,39.93,19.97-.36,42.92.51,61.79-.16,2.12-.08,4.32.15,6.45,0,.8-.06,1.96-.54,2.51-.31.15.06.08.28.16.31.74.38,1.87.05,2.67.16-.32-2.27-1.11-4.38-1.73-6.6-.64-2.3-1.09-4.73-1.73-7.07-6.24-22.88-12.2-45.79-18.55-68.71-2.54-9.16-4.88-18.92-7.54-27.67-.05-.2-.23-.07-.47,0Zm64.62,33.17c-.45.6-1.08,1.14-1.57,1.73-2.63,3.15-5.29,6.05-8.02,8.96-4.94,5.27-10.09,10.05-15.41,14.93-.6.56-1.73,1.44-1.73,1.73,0,.22,2.21,2.52,2.36,2.67,1.01,1.05,2,1.83,2.67,2.52,2.01,2.05,3.18,3.5,5.03,5.19.45.41.98.68,1.41,1.1,2.44,2.34,4.13,3.99,6.6,6.29.45.42,2.4,2.39,2.83,2.36.43-.02,1.21-1.34,1.57-1.73,2.94-3.21,5.53-5.94,8.17-8.8,4.69-5.08,9.89-10.73,14.78-16.04.32-.35,1.6-1.56,1.57-1.89,0,.02-1.74-1.75-1.88-1.89-.23-.21-.61-.31-.79-.47-2.48-2.25-4.12-4.54-6.29-6.45-.47-.41-1.06-.61-1.57-1.1-.38-.36-.61-.9-.94-1.26-1.17-1.26-2.42-2.58-3.46-3.62-.74-.74-1.58-1.42-2.36-2.2-.6-.6-2.04-2.58-2.83-2.36-.22.07-.04.16-.16.31Zm28.77,27.36c-.1-.11-.05-.37-.16-.47-.11-.11-.37-.05-.47-.16-.47-.48-.9-1.3-1.26-1.26-.12.02-1.2,1.61-1.41,1.89-2.82,3.62-5.8,7.17-8.33,10.22-4.21,5.06-9.06,10.02-14.15,14.62-.05.04-1.93,1.82-1.89,1.57-.09.54,1.23,1.29,1.89,1.89,2.77,2.52,5.28,4.93,7.86,7.23,1.7,1.51,3.4,3,5.03,4.4,1.24,1.07,2.28,1.58,4.24,2.36,2.52,1,6.23,1.8,8.65.32.87-.54,1.71-2.18,2.36-3.3.27-.46.42-.88.63-1.26,2.63-4.82,5.49-10.07,8.02-14.62,5.63-10.12,11.55-20.48,17.14-30.66.02-.04.56-1.02.63-1.26.11-.37.12-.1-.16-.31-.38-.29-2.17-.23-3.46-.16-2.83.17-4.13,1.03-5.98,1.57-.38.11-.91.03-1.26.16-.94.33-1.97,1.13-2.99,1.73-1.02.61-2.08,1.1-2.98,1.73-4.73,3.28-8.48,7.71-11.64,12.11-.99,1.38-1.82,2.85-2.83,3.93-.05.05-.27.45-.32.47-.57.39-1.74.62-2.04.32-.64-.64,1.74-4.27,2.04-4.72,1.7-2.56,3.66-4.54,5.19-6.76-1.5-.5-1.59-.77-2.36-1.57Zm-6.76-6.6c-.15-.11-.43.42-.47.47-1.47,1.82-3.36,3.46-4.87,5.03-2.83,2.94-5.15,5.52-8.18,8.8-2.3,2.5-4.11,4.37-6.45,6.92-1.39,1.52-3.17,3.62-4.72,5.34-.56.63-1.62,1.52-1.57,1.89,0,0,.6.49.94.79.69.61,2.45,2.6,2.99,2.52-.08.01,1.56-1.72,1.57-1.73,1.02-.94,1.57-1.52,2.2-2.04,1.21-1.01,2.51-2.32,3.46-3.3,1.1-1.14,2.42-2.41,3.3-3.46.95-1.14,1.93-2.1,2.83-3.14,4.4-5.12,8-10.14,12.26-14.94-.79-.53-2.32-2.43-3.3-3.14Zm-100.15,63.05c2.49,9.23,4.73,18.17,7.23,27.51.13.49,1.25,4.55,1.26,4.56.46.32,3.71,0,5.03,0,12.05,0,24.44.13,35.69-.16-3.05-10.44-5.72-21.47-8.65-32.23-.37-1.34-.99-4.31-1.41-4.56-.64-.37-3.48,0-5.03,0h-35.22c-.09,1.47.64,3.17,1.1,4.87Zm50.31,36.32c-.09-.35-.59-2.49-.63-2.52-.47-.32-3.68,0-5.03,0h-35.53c-.04.45,1.21,5,1.26,5.03.49.32,3.74,0,5.03,0h35.53c-.07-.6-.34-1.39-.63-2.52Zm-35.69,18.71c.42,1.52.79,3.41,1.41,4.56.68,1.26,2.27,2.81,3.46,3.14.73.21,1.89,0,2.99,0,18.32-.15,37.58.26,55.18.16-1.87-5.2-5.71-8.87-11.64-10.69-2.72-.83-5.74-1.56-8.17-2.99-1.21-.7-2.52-1.94-3.46-2.67-.13-.1-.2-.35-.32-.47-.68-.75-1.52-1.51-1.89-2.36-.24-.56-.32-2.7-.79-2.99-.56-.35-3.58,0-5.03,0-12.09,0-23.86,0-35.38,0,.88,3.9,2.4,9.85,3.62,14.31Z"/>
    <path class="cls-3" d="m182.94,206.45c1.26-.81,1.92,1.27,2.36,2.36.32.78.9,1.8.79,2.04-.19.37-1.47.8-2.2.32-.08-.05-1.41-3.38-1.41-3.62,0-.45.36-1.03.47-1.1Z"/>
    <path class="cls-3" d="m170.05,208.81c1.38-.53,1.86,1.51,2.36,2.83.33.88.81,1.54.63,1.89-.21.4-1.36.63-1.89.47-.55-.16-1.98-3.14-1.88-4.09.07-.69.32-.92.79-1.1Z"/>
    <path class="cls-3" d="m156.68,216.82c.6-.38,2.11.21,3.46.79,1.09.47,2.42,1.19,2.2,1.73,0-.03-.99.47-1.41.47-.32,0-4.6-1.52-4.72-2.04-.17-.73.38-.89.47-.94Z"/>
    <path class="cls-3" d="m176.97,218.71c.95-.44,1.69.81,2.67.94.64.09,1.65-.4,2.36-.32.67.08,1.39.54,1.41.79.08.91-2.59,1.28-4.09,1.1-1.62-.19-4.23-1.65-2.36-2.51Z"/>
    <path class="cls-3" d="m237.97,431.43c.33.15.06.89.47.94-.5.65-.9-.63-.47-.94Z"/>
  </g>
  <g>
    <path class="cls-2" d="m57.58,341.14c-3.47,0-6.29-2.82-6.29-6.29s2.82-6.29,6.29-6.29h429.9c3.47,0,6.29,2.82,6.29,6.29s-2.82,6.29-6.29,6.29H57.58Z"/>
    <path d="m487.47,329.74c2.82,0,5.11,2.29,5.11,5.11s-2.29,5.11-5.11,5.11H57.58c-2.82,0-5.11-2.29-5.11-5.11s2.29-5.11,5.11-5.11h429.9Zm0-2.36H57.58c-4.12,0-7.47,3.35-7.47,7.47s3.35,7.47,7.47,7.47h429.9c4.12,0,7.47-3.35,7.47-7.47s-3.35-7.47-7.47-7.47h0Z"/>
  </g>
  <rect x=".91" y="550.39" width="559.72" height="2.36"/>
</svg>