<?xml version="1.0" encoding="UTF-8"?>
<svg id="Capa_1" data-name="Capa 1" xmlns="http://www.w3.org/2000/svg" viewBox="0 0 2000.76 1483.42">
  <defs>
    <style>
      .cls-1 {
        opacity: .2;
      }

      .cls-1, .cls-2, .cls-3, .cls-4, .cls-5 {
        fill: #8ac34a;
      }

      .cls-6 {
        fill: #d1d3d4;
      }

      .cls-6, .cls-2, .cls-7, .cls-8, .cls-4, .cls-9, .cls-5, .cls-10, .cls-11, .cls-12, .cls-13, .cls-14, .cls-15, .cls-16, .cls-17, .cls-18 {
        stroke: #000;
      }

      .cls-6, .cls-2, .cls-8, .cls-9, .cls-5, .cls-10, .cls-12, .cls-13, .cls-19 {
        stroke-width: 8.84px;
      }

      .cls-6, .cls-2, .cls-9, .cls-11, .cls-12, .cls-14, .cls-19, .cls-17, .cls-18 {
        stroke-miterlimit: 10;
      }

      .cls-7 {
        stroke-width: 8.38px;
      }

      .cls-7, .cls-8, .cls-4, .cls-5, .cls-10, .cls-13, .cls-15, .cls-16 {
        stroke-linejoin: round;
      }

      .cls-7, .cls-8, .cls-9, .cls-13, .cls-15, .cls-17 {
        fill: none;
      }

      .cls-4 {
        stroke-width: 10.6px;
      }

      .cls-10, .cls-11, .cls-12, .cls-19, .cls-16, .cls-18 {
        fill: #fff;
      }

      .cls-11 {
        stroke-width: 8.51px;
      }

      .cls-13, .cls-15, .cls-16 {
        stroke-linecap: round;
      }

      .cls-14 {
        fill: #e6e7e8;
        stroke-width: 8.43px;
      }

      .cls-19 {
        stroke: #231f20;
      }

      .cls-15, .cls-16, .cls-17 {
        stroke-width: 7.07px;
      }

      .cls-18 {
        stroke-width: 8.37px;
      }
    </style>
  </defs>
  <polygon class="cls-1" points="1308.71 232.89 1484.26 0 1478.23 225.5 1690.85 275.59 1498.86 385.01 1516.44 608.71 1309.28 446.35 1196.23 568.91 1245.45 346.44 1095.07 169.51 1308.71 232.89"/>
  <circle class="cls-1" cx="518.47" cy="544.91" r="370.79"/>
  <path class="cls-1" d="m1918.36,1224.58c0-201.09-144.46-368.42-335.26-403.91-33.54-6.24-61.15-29.61-73.09-61.57-73.62-197.06-263.57-337.37-486.31-337.37s-398.14,129.81-477.37,315.06c-11.5,26.89-36.58,45.54-65.61,49.09-224.48,27.5-398.33,218.8-398.33,450.71v242.42h1835.97v-242.42h-.19c.11-3.99.19-7.99.19-12.01Z"/>
  <g>
    <g>
      <g>
        <g>
          <rect class="cls-14" x="637.58" y="42.22" width="725.6" height="1433.03" rx="67.76" ry="67.76"/>
          <rect class="cls-11" x="664.61" y="221.57" width="671.54" height="1054.33" rx="12.23" ry="12.23"/>
        </g>
        <g>
          <rect x="938.76" y="133.09" width="147.61" height="9.9" rx="3.11" ry="3.11"/>
          <ellipse cx="921.6" cy="138.04" rx="7.21" ry="7.93"/>
        </g>
      </g>
      <circle class="cls-6" cx="1000.38" cy="1376.52" r="59.56"/>
    </g>
    <g>
      <path class="cls-13" d="m518.47,1179.71v-73.75c0-37.35-30.28-67.64-67.64-67.64h0c-37.35,0-67.64,30.28-67.64,67.64v73.75"/>
      <polygon class="cls-10" points="561.22 1475.25 240.3 1475.25 272.79 1140.8 528.73 1140.8 561.22 1475.25"/>
      <polygon class="cls-5" points="528.73 1140.8 561.22 1475.25 620.09 1434.73 570.56 1140.8 528.73 1140.8"/>
      <path class="cls-13" d="m458.13,1179.71v-73.75c0-37.35-30.28-67.64-67.64-67.64h0c-37.35,0-67.64,30.28-67.64,67.64v73.75"/>
      <g>
        <path class="cls-13" d="m743.8,1245.88v-57.24c0-28.99-23.5-52.49-52.49-52.49h0c-28.99,0-52.49,23.5-52.49,52.49v57.24"/>
        <polygon class="cls-10" points="776.98 1475.25 527.91 1475.25 553.12 1215.68 751.77 1215.68 776.98 1475.25"/>
        <polygon class="cls-5" points="751.77 1215.68 776.98 1475.25 827.97 1475.25 784.23 1215.68 751.77 1215.68"/>
        <path class="cls-13" d="m696.97,1245.88v-57.24c0-28.99-23.5-52.49-52.49-52.49h0c-28.99,0-52.49,23.5-52.49,52.49v57.24"/>
      </g>
    </g>
    <g>
      <path class="cls-4" d="m1358.08,430.69l-82.82-16.92c-5.09-1.04-8.87-5.34-9.24-10.53l-6.04-84.31c-.26-3.62,1.19-7.15,3.91-9.54l111.27-97.67c4.81-4.22,12.13-3.75,16.35,1.06l88.86,101.23c4.22,4.81,3.75,12.13-1.06,16.35l-111.27,97.67c-2.72,2.39-6.41,3.37-9.96,2.64Z"/>
      <path d="m1365.17,296.31c-6.47-7.37-5.73-18.76,1.64-25.23,7.37-6.47,18.69-5.66,25.16,1.7,6.47,7.37,5.8,18.7-1.57,25.17-7.37,6.47-18.76,5.72-25.23-1.64Zm-38.5,42.11c-2.27.33-5.65-2.21-8.44-5.38-1.52-1.73-6.85-10.87-2.15-11.92l97.86-18.63c2-.35,5.59,2,8.57,5.39,2.16,2.46,7.44,11.25,1.95,11.98h.13s-97.92,18.56-97.92,18.56Zm47.96-50.41c1.9,2.17,5.29,2.39,7.46.49,2.17-1.9,2.39-5.29.49-7.46-1.9-2.17-5.29-2.39-7.46-.49-2.17,1.9-2.39,5.29-.49,7.46Zm.03,82.21c-7.44,6.53-18.76,5.73-25.23-1.64-6.47-7.37-5.73-18.63,1.71-25.16,7.37-6.47,18.7-5.8,25.17,1.57,6.47,7.37,5.72,18.76-1.64,25.23Zm-15.77-9.95c1.9,2.17,5.29,2.39,7.46.49s2.39-5.29.49-7.46c-1.9-2.17-5.29-2.39-7.46-.49-2.17,1.9-2.39,5.29-.49,7.46Z"/>
    </g>
    <g>
      <rect class="cls-18" x="362.64" y="292.38" width="342.99" height="526.21" rx="16.93" ry="16.93" transform="translate(-21.36 1089.63) rotate(-90)"/>
      <g>
        <rect x="299.09" y="544.91" width="95.08" height="21.15" rx="6.64" ry="6.64"/>
        <rect x="424.09" y="544.91" width="95.08" height="21.15" rx="6.64" ry="6.64"/>
        <rect x="549.1" y="544.91" width="95.08" height="21.15" rx="6.64" ry="6.64"/>
        <rect x="674.1" y="544.91" width="95.08" height="21.15" rx="6.64" ry="6.64"/>
      </g>
      <rect class="cls-3" x="299.09" y="624.56" width="172.55" height="21.15" rx="6.64" ry="6.64"/>
      <rect x="299.09" y="664.39" width="372.66" height="21.15" rx="6.64" ry="6.64"/>
      <circle class="cls-17" cx="333.24" cy="449.07" r="27.35" transform="translate(-163.05 191.37) rotate(-25.98)"/>
      <circle class="cls-17" cx="360.59" cy="449.07" r="27.35" transform="translate(-203.41 565.64) rotate(-62.91)"/>
      <circle class="cls-3" cx="733.75" cy="449.07" r="27.35" transform="translate(-116 314.98) rotate(-22.5)"/>
    </g>
    <g>
      <rect class="cls-3" x="721.64" y="940.44" width="172.55" height="21.15" rx="6.64" ry="6.64"/>
      <rect x="721.64" y="980.26" width="372.66" height="21.15" rx="6.64" ry="6.64"/>
    </g>
    <g>
      <rect class="cls-2" x="879.99" y="582.71" width="265.14" height="265.14" rx="25.72" ry="25.72"/>
      <g>
        <path class="cls-13" d="m1065.06,691.87c0-28.99-23.5-52.49-52.49-52.49h0c-28.99,0-52.49,23.5-52.49,52.49"/>
        <path class="cls-10" d="m1060.97,791.18h-96.82c-17.81,0-31.54-15.68-29.18-33.33l8.3-62.24h138.59l8.3,62.24c2.35,17.65-11.38,33.33-29.18,33.33Z"/>
        <polyline class="cls-8" points="943.27 695.61 1012.56 743.39 1081.86 695.61"/>
      </g>
    </g>
    <g>
      <path class="cls-7" d="m1187.24,997.77h64.22c3.6,0,6.7-2.51,7.46-6.02l12.76-59.26c.62-2.87,3.15-4.91,6.09-4.91h19.54"/>
      <path class="cls-7" d="m1262.03,977.33h-63.55c-4.94,0-8.66-4.51-7.71-9.36l4.56-23.48c.72-3.69,3.95-6.36,7.71-6.36h67.43l-8.44,39.2Z"/>
      <circle class="cls-7" cx="1240.76" cy="1009.69" r="4.14"/>
      <path class="cls-7" d="m1207.64,1009.69c0,2.29-1.85,4.14-4.14,4.14s-4.14-1.85-4.14-4.14,1.85-4.14,4.14-4.14,4.14,1.85,4.14,4.14Z"/>
      <line class="cls-7" x1="1192.76" y1="957.73" x2="1266.25" y2="957.73"/>
    </g>
    <g>
      <g>
        <polygon class="cls-9" points="1334.98 1408.28 1334.98 1472 1293.56 1472 1293.56 1399.79 1334.98 1408.28"/>
        <path d="m1350.64,1478.33l-9.31-34.3c-.71-1.64-2.74-2.4-4.51-1.71-7.06,2.74-25.08,7.9-45.56-.67-1.03-.43-2.23-.39-3.21.15l-62.94,35.01c-2.95,1.64-1.68,5.8,1.76,5.8h120.6c2.41,0,4.05-2.23,3.16-4.28Z"/>
      </g>
      <g>
        <polygon class="cls-9" points="1560.9 1405.27 1562.75 1468.96 1521.36 1470.17 1519.25 1397.98 1560.9 1405.27"/>
        <path d="m1577.43,1474.87l-10.3-34.01c-.76-1.62-2.81-2.32-4.56-1.58-6.97,2.95-24.84,8.63-45.56.66-1.05-.4-2.25-.33-3.2.24l-61.89,36.83c-2.9,1.72-1.51,5.85,1.93,5.75l120.55-3.51c2.41-.07,3.99-2.35,3.04-4.38Z"/>
      </g>
      <polyline class="cls-16" points="1546.95 854.4 1540.58 1115.64 1570.31 1425.74 1499.16 1425.74 1439.69 1074.23"/>
      <path class="cls-16" d="m1514.03,897.94l-74.34,176.29-90.27,351.51h-77.52l58.41-341.35c1.89-12.59,5.77-24.81,11.49-36.18l59.66-150.27"/>
      <g>
        <path class="cls-16" d="m1292.34,859.04s.54,69.26-11.67,74.47c-28.95,12.35-118.94-93.98-118.94-93.98,0,0-13.81,1.06-21.24-4.25-7.43-5.31-8.18-10.03-7.04-18.85.92-7.17,6.11-12.08,17.8-17.39,9.29-4.22-2.67-14.75-7.95-18.88-2.11-1.65-3.68-3.94-4.2-6.56-.63-3.19.73-5.8,10.95.08,17.52,10.09,20.18,32.39,32.39,48.32,12.21,15.93,66.9,56.28,66.9,56.28v-26.39l43,7.15Z"/>
        <g>
          <path d="m1304.48,660.32s17.43-39.29-10.45-49.12c0,0,23.09-14.87,7.92-39.82-15.17-24.96-50.86-19.65-53.09,9.82,0,0-38.2-12.74-53.26,19.12-15.06,31.86-2.75,56.82-2.75,56.82l18.05-1.55,22.61,11.63,18.4,10.89,19.98,7.17,32.58-24.96Z"/>
          <path class="cls-16" d="m1336.94,696.43l-34.65-36.11s-24.29,37.04-48.98,16.13c0,0-10.35-36.84-27.88-9.76,0,0-15.93-21.5-29.74-11.15,0,0,17.79,53.63,50.44,52.83,15.68-.38,23.59-.4,27.57-.31,2.43.05,4.66,1.32,5.97,3.38l17.44,27.46,39.82-42.48Z"/>
          <path class="cls-3" d="m1558.1,849.62s-51.51,71.68-146.55,78.06l-107.07-125.8-2.11,59.84c-.16,4.49-4,7.97-8.48,7.66-15.55-1.08-48.36-5.3-54.79-21.78l7.68-96.39c.78-7.64,4.84-14.56,11.11-18.97l21.3-15.02s43.15,2.85,50.58-34.85c0,0,65.84-9.56,109.91,10.62,44.07,20.18,79.65,52.57,79.65,52.57,0,0-.72,13.19-25.49,44.07l64.25,60Z"/>
        </g>
        <line class="cls-15" x1="1491.01" y1="790.15" x2="1392.96" y2="715.28"/>
      </g>
    </g>
    <line class="cls-8" y1="1479" x2="2000.76" y2="1479"/>
    <g>
      <g>
        <path class="cls-3" d="m1844.74,1207.87c-19.42,3.49-44.92,26.9-63.66,60.61-18.74,33.71-25.16,67.73-17.88,86.06,19.42-3.49,44.92-26.9,63.66-60.61,18.74-33.71,25.16-67.73,17.88-86.06Z"/>
        <path class="cls-3" d="m1645.9,1225.73c-5.24,16.98,2.95,47.06,22.18,75.99,19.22,28.93,43.78,48.13,61.47,49.88,5.24-16.98-2.95-47.06-22.18-75.99-19.22-28.93-43.78-48.13-61.47-49.88Z"/>
        <path class="cls-12" d="m1783.98,1128.49c-22,12.89-42.49,52.67-50.19,101.92-7.7,49.25-.32,93.38,16.7,112.37,22-12.89,42.49-52.67,50.19-101.92,7.7-49.25.32-93.38-16.7-112.37Z"/>
        <path class="cls-12" d="m1704.06,1178.3c-12.4,16.66-15.11,53-5.21,92.37,9.89,39.37,29.46,70.11,48.26,78.94,12.4-16.66,15.11-53,5.21-92.37-9.89-39.37-29.46-70.11-48.26-78.94Z"/>
      </g>
      <g>
        <rect class="cls-19" x="1649.37" y="1316.03" width="193.28" height="36.09"/>
        <polygon class="cls-19" points="1806.82 1479 1685.21 1479 1670.08 1352.12 1821.95 1352.12 1806.82 1479"/>
      </g>
    </g>
  </g>
</svg>